<svg xmlns="http://www.w3.org/2000/svg" xmlns:xlink="http://www.w3.org/1999/xlink" viewBox="0 0 225 221">
  <defs>
    <style>
      .cls-1 {
        isolation: isolate;
      }

      .cls-2 {
        fill: url(#linear-gradient);
      }

      .cls-3 {
        fill: url(#linear-gradient-2);
      }

      .cls-4 {
        fill: #253858;
      }

      .cls-5 {
        fill: url(#linear-gradient-3);
      }

      .cls-6 {
        fill: #dfe1e5;
        mix-blend-mode: multiply;
      }

      .cls-7 {
        fill: url(#linear-gradient-4);
      }

      .cls-8 {
        fill: url(#linear-gradient-5);
      }

      .cls-9 {
        fill: url(#linear-gradient-6);
      }

      .cls-10 {
        fill: #00875a;
        stroke: #36b37e;
        stroke-linecap: round;
        stroke-miterlimit: 10;
        stroke-width: 4.0888px;
      }

      .cls-11 {
        fill: #3384ff;
      }

      .cls-12 {
        fill: #99c1ff;
      }

      .cls-13 {
        fill: url(#linear-gradient-7);
      }
    </style>
    <linearGradient id="linear-gradient" x1="112.3665" y1="72.246" x2="224.9058" y2="72.246" gradientUnits="userSpaceOnUse">
      <stop offset="0.1151" stop-color="#00875a"></stop>
      <stop offset="1" stop-color="#00875a"></stop>
    </linearGradient>
    <linearGradient id="linear-gradient-2" x1="110.4953" y1="73.4056" x2="226.9502" y2="73.4056" gradientUnits="userSpaceOnUse">
      <stop offset="0.039" stop-color="#36b37e"></stop>
      <stop offset="1" stop-color="#00875a"></stop>
    </linearGradient>
    <linearGradient id="linear-gradient-3" x1="71.1969" y1="240.3246" x2="153.8779" y2="157.6436" gradientUnits="userSpaceOnUse">
      <stop offset="0.5955" stop-color="#344563"></stop>
      <stop offset="1" stop-color="#5e6c84"></stop>
    </linearGradient>
    <linearGradient id="linear-gradient-4" x1="146.5491" y1="232.0449" x2="184.696" y2="193.898" gradientUnits="userSpaceOnUse">
      <stop offset="0.181" stop-color="#344563"></stop>
      <stop offset="1" stop-color="#5e6c84"></stop>
    </linearGradient>
    <linearGradient id="linear-gradient-5" y1="72.246" x2="112.5394" y2="72.246" gradientUnits="userSpaceOnUse">
      <stop offset="0" stop-color="#00875a"></stop>
      <stop offset="1" stop-color="#36b37e"></stop>
    </linearGradient>
    <linearGradient id="linear-gradient-6" x1="-2.0444" y1="73.4056" x2="114.4105" y2="73.4056" gradientUnits="userSpaceOnUse">
      <stop offset="0" stop-color="#00875a"></stop>
      <stop offset="0.5024" stop-color="#36b37e"></stop>
    </linearGradient>
    <linearGradient id="linear-gradient-7" x1="130.1255" y1="27.3834" x2="130.1255" y2="27.3834" gradientUnits="userSpaceOnUse">
      <stop offset="0" stop-color="#f4f5f7" stop-opacity="0.6"></stop>
      <stop offset="0.0172" stop-color="#f4f5f7" stop-opacity="0.5402"></stop>
      <stop offset="0.0648" stop-color="#f4f5f7" stop-opacity="0.3967"></stop>
      <stop offset="0.117" stop-color="#f4f5f7" stop-opacity="0.2732"></stop>
      <stop offset="0.174" stop-color="#f4f5f7" stop-opacity="0.1728"></stop>
      <stop offset="0.2376" stop-color="#f4f5f7" stop-opacity="0.0955"></stop>
      <stop offset="0.3116" stop-color="#f4f5f7" stop-opacity="0.041"></stop>
      <stop offset="0.4052" stop-color="#f4f5f7" stop-opacity="0.0093"></stop>
      <stop offset="0.5842" stop-color="#f4f5f7" stop-opacity="0"></stop>
      <stop offset="1" stop-color="#f4f5f7" stop-opacity="0.6"></stop>
    </linearGradient>
  </defs>
  <title>Growth Sprout</title>
  <g class="cls-1">
    <g id="Layer_2" data-name="Layer 2">
      <g id="Objects">
        <path id="_Path_" data-name="&lt;Path&gt;" class="cls-2" d="M112.3665,118.3986c2.2824-6.7193,6.5482-15.7864,15.0828-22.68,15.8093-12.7695,32.7825-7.19,53.7313-13.7452,12.13-3.796,27.9847-12.409,43.7253-33.7327-5.6843-6.4806-16.9333-17.14-33.7287-20.8316a60.0974,60.0974,0,0,0-27.6538.6365c-29.7938,7.5007-50.4267,34.6971-50.83,65.4179Q112.53,105.9311,112.3665,118.3986Z"></path>
        <path class="cls-3" d="M223.577,50.0073c.443-.58.8859-1.1666,1.3288-1.7666-.7544-.86-1.6138-1.797-2.5642-2.7782a104.5585,104.5585,0,0,0-34.1328-2.8979l13.3585-11.7577c-1.3793-.6014-2.7957-1.1726-4.2779-1.6809l-16.102,14.1725c-8.535,1.0441-20.8055,3.2547-32.9908,9.9856l13.9739-24.83c.0076-.0135.0109-.028.0182-.0416q-2.9281.8026-5.73,1.8547l-15.56,27.6481a69.5153,69.5153,0,0,0-8.2455,6.9972,70.58,70.58,0,0,0-6.75,7.7689l3.2081-23.122a68.5737,68.5737,0,0,0-5.0677,6.7678l-3.3918,24.4459a79.9386,79.9386,0,0,0-8.0707,21.29q-.1071,8.1676-.2143,16.3351a60.4814,60.4814,0,0,1,2.697-6.6483,78.3934,78.3934,0,0,1,8.5341-27.8638l15.6288,5.34a50.3953,50.3953,0,0,1,7.24-1.8469l-20.7941-7.1052a66.65,66.65,0,0,1,17.0745-18.6661l43.6212,18.5092c1.6461-.6625,3.3427-1.4193,5.0825-2.2845L146.74,58.8618c12.55-7.9778,25.5874-10.3748,34.8894-11.5012l29.2745,16.76q1.5164-1.4165,3.0447-2.9682L188.6324,46.6588A100.6887,100.6887,0,0,1,223.577,50.0073Z"></path>
        <path class="cls-4" d="M66.4627,160.6282a46.3736,46.3736,0,0,0-44.23,32.6824h0a139.2565,139.2565,0,0,0,18.6753,4.7119,147.7514,147.7514,0,0,0,51.8207-.3,150.1315,150.1315,0,0,0,17.9637-4.4123h0A46.3736,46.3736,0,0,0,66.4627,160.6282Z"></path>
        <path id="_Path_2" data-name="&lt;Path&gt;" class="cls-5" d="M112.5374,149.2483a79.84,79.84,0,0,0-76.1488,56.268h0a239.7522,239.7522,0,0,0,32.1525,8.1123,254.3776,254.3776,0,0,0,89.2175-.5158,258.4753,258.4753,0,0,0,30.9274-7.5965h0A79.84,79.84,0,0,0,112.5374,149.2483Z"></path>
        <path class="cls-6" d="M115.1867,165.3348a2.41,2.41,0,0,0-2.5537-2.3311,104.6783,104.6783,0,0,0-48.22,14.2744,102.9053,102.9053,0,0,0-25.5318,21.3242c-.9273,2.2516-1.7676,4.5533-2.4928,6.9139h0c.8156.2668,1.6555.53,2.4922.7939a98.2832,98.2832,0,0,1,28.0167-24.8212,99.7776,99.7776,0,0,1,45.958-13.6006A2.4447,2.4447,0,0,0,115.1867,165.3348Z"></path>
        <path class="cls-4" d="M157.7587,213.1129c7.0081-1.2708,13.2758-2.7081,18.647-4.0962a36.7374,36.7374,0,0,0-66.197,8.2731A261.4967,261.4967,0,0,0,157.7587,213.1129Z"></path>
        <path class="cls-7" d="M165.6225,190.0247a36.8359,36.8359,0,0,0-35.1331,25.9606h0a110.6155,110.6155,0,0,0,14.8343,3.7428,117.3632,117.3632,0,0,0,41.1627-.238,119.2538,119.2538,0,0,0,14.2691-3.5048h0A36.8359,36.8359,0,0,0,165.6225,190.0247Z"></path>
        <path id="_Path_3" data-name="&lt;Path&gt;" class="cls-8" d="M112.5394,118.3986c-2.2824-6.7193-6.5482-15.7864-15.0828-22.68-15.8093-12.7695-32.7825-7.19-53.7313-13.7452C31.5948,78.1775,15.7406,69.5644,0,48.2407c5.6843-6.4806,16.9333-17.14,33.7287-20.8316a60.0974,60.0974,0,0,1,27.6538.6365c29.7938,7.5007,50.4267,34.6971,50.83,65.4179Q112.3758,105.9311,112.5394,118.3986Z"></path>
        <path class="cls-9" d="M100.8625,56.3272a68.5737,68.5737,0,0,0-5.0677-6.7678l3.2081,23.122a70.58,70.58,0,0,0-6.75-7.7689,69.5153,69.5153,0,0,0-8.2455-6.9972l-15.56-27.6481q-2.801-1.0509-5.73-1.8547c.0073.0135.0106.0281.0182.0416l13.9739,24.83c-12.1853-6.7309-24.4558-8.9415-32.9908-9.9856L27.6164,29.1259c-1.4822.5083-2.8986,1.08-4.2779,1.6809L36.697,42.5645A104.5585,104.5585,0,0,0,2.5642,45.4625c-.95.9812-1.81,1.9181-2.5642,2.7782.4429.6.8858,1.1866,1.3288,1.7666a100.6887,100.6887,0,0,1,34.9446-3.3485L10.9573,61.1528q1.5279,1.5526,3.0447,2.9682l29.2745-16.76c9.302,1.1264,22.339,3.5234,34.8894,11.5012L33.4554,77.8333c1.74.8652,3.4364,1.6219,5.0825,2.2845L82.1591,61.6085A66.65,66.65,0,0,1,99.2336,80.2747L78.44,87.38a50.3953,50.3953,0,0,1,7.24,1.8469l15.6288-5.34a78.3934,78.3934,0,0,1,8.5341,27.8638,60.4814,60.4814,0,0,1,2.697,6.6483q-.1071-8.1676-.2143-16.3351a79.9385,79.9385,0,0,0-8.0707-21.29Z"></path>
        <line class="cls-10" x1="112.3665" y1="165.2972" x2="112.3665" y2="109.8131"></line>
        <path class="cls-11" d="M40.3484,96.3183h0a12.0455,12.0455,0,0,0,9.1172,9.1172h0a12.0455,12.0455,0,0,0-9.1172,9.1172h0a12.0455,12.0455,0,0,0-9.1172-9.1172h0a12.0455,12.0455,0,0,0,9.1172-9.1172Z"></path>
        <path class="cls-11" d="M151.9835,113.671h0a12.0455,12.0455,0,0,0,9.1172,9.1172h0a12.0455,12.0455,0,0,0-9.1172,9.1172h0a12.0455,12.0455,0,0,0-9.1172-9.1172h0a12.0455,12.0455,0,0,0,9.1172-9.1172Z"></path>
        <path class="cls-11" d="M105.2755,0h0a12.0455,12.0455,0,0,0,9.1172,9.1172h0a12.0455,12.0455,0,0,0-9.1172,9.1172h0a12.0455,12.0455,0,0,0-9.1172-9.1172h0A12.0455,12.0455,0,0,0,105.2755,0Z"></path>
        <circle class="cls-12" cx="72.7525" cy="120.4569" r="2.4466"></circle>
        <circle class="cls-12" cx="188.6862" cy="103.4355" r="2.4466"></circle>
        <circle class="cls-12" cx="134.9688" cy="24.0594" r="2.4466"></circle>
        <path class="cls-13" d="M130.1255,27.3834"></path>
      </g>
    </g>
  </g>
</svg>
